<svg viewBox="0 0 96 96" fill="none" xmlns="http://www.w3.org/2000/svg">
  <ellipse cx="48" cy="83" rx="25" ry="5" fill="#315D42" opacity="0.12"/>
  <path d="M39 13H57V30C57 35 64 40 66 47V77C66 82 59 84 48 84C37 84 30 82 30 77V47C32 40 39 35 39 30V13Z" fill="#4B3330" stroke="#7A433A" stroke-width="3" stroke-linejoin="round"/>
  <path d="M37 12H59V23H37V12Z" fill="#B99555" stroke="#7A433A" stroke-width="3"/>
  <rect x="35" y="47" width="26" height="24" rx="3" fill="#D8B77A" stroke="#7A433A" stroke-width="2.5"/>
  <path d="M48 51C54 56 56 61 53 66C50 70 44 70 41 66C38 61 42 56 48 51Z" fill="#6C3F3B"/>
  <path d="M35 41C42 38 54 38 61 41" stroke="#765046" stroke-width="3" stroke-linecap="round"/>
</svg>
