<svg viewBox="0 0 96 96" fill="none" xmlns="http://www.w3.org/2000/svg">
  <ellipse cx="48" cy="83" rx="27" ry="5" fill="#315D42" opacity="0.12"/>
  <path d="M36 29H60L67 39V76C67 82 60 84 48 84C36 84 29 82 29 76V39L36 29Z" fill="#5C3B31" stroke="#7A433A" stroke-width="3" stroke-linejoin="round"/>
  <path d="M38 13H58V31H38V13Z" fill="#D34B3D" stroke="#7A433A" stroke-width="3"/>
  <rect x="34" y="45" width="28" height="25" rx="4" fill="#EFE0B2" stroke="#7A433A" stroke-width="2.5"/>
  <path d="M48 50C53 54 56 59 53 64C50 68 44 68 41 64C38 59 42 54 48 50Z" fill="#8A4A38"/>
  <path d="M35 38C42 35 54 35 61 38" stroke="#916147" stroke-width="3" stroke-linecap="round"/>
</svg>
