<svg viewBox="0 0 96 96" fill="none" xmlns="http://www.w3.org/2000/svg">
  <ellipse cx="48" cy="83" rx="29" ry="5" fill="#315D42" opacity="0.12"/>
  <path d="M24 30H72V75C72 82 63 84 48 84C33 84 24 82 24 75V30Z" fill="#D94E3E" stroke="#7A433A" stroke-width="3" stroke-linejoin="round"/>
  <path d="M21 17H75V33H21V17Z" fill="#668A50" stroke="#7A433A" stroke-width="3"/>
  <rect x="30" y="42" width="36" height="28" rx="5" fill="#F2D39A" stroke="#7A433A" stroke-width="2.5"/>
  <circle cx="48" cy="56" r="9" fill="#E75B49" stroke="#7A433A" stroke-width="2"/>
  <path d="M48 47L42 43L45 50L38 51L46 54L48 61L50 54L58 51L51 50L54 43L48 47Z" fill="#639356"/>
  <path d="M30 36C40 39 56 39 66 36" stroke="#F17B61" stroke-width="3" stroke-linecap="round"/>
</svg>
